<svg xmlns="http://www.w3.org/2000/svg" xmlns:xlink="http://www.w3.org/1999/xlink" xmlns:dc="http://purl.org/dc/elements/1.1/" xmlns:cc="http://creativecommons.org/ns#" xmlns:rdf="http://www.w3.org/1999/02/22-rdf-syntax-ns#" version="1.1" id="DESIGNS" x="0px" y="0px" width="32px" height="32px" viewBox="0 0 32 32" style="enable-background:new 0 0 32 32;" xml:space="preserve">
<title property="dc:title">to send</title><desc property="dc:description">An icon for "send" from the Puchi Puchi series on to [icon]. Downloaded from http://www.toicon.com/icons/puchi-puchi_send by 185.254.75.48 on 2021-12-23. Licensed CC-BY, see http://toicon.com/license/ for details.</desc>
<path class="puchipuchi_een" d="M30.291,2.87l-9.581,25.26c-0.39,1.029-1.346,1.234-2.123,0.456c0,0-6.036-6.036-6.586-6.586  s-0.359-1.631,0.425-2.403l13.316-13.11c0.784-0.772,0.711-0.856-0.163-0.187L10.588,17.784c-0.873,0.669-2.224,0.58-3.002-0.198  l-4.172-4.172c-0.778-0.778-0.573-1.733,0.456-2.124l25.26-9.581C30.159,1.319,30.681,1.841,30.291,2.87z M8.707,20.121  C8.318,19.732,8,19.864,8,20.414V25c0,0.55,0.386,0.768,0.857,0.485l2.401-1.441c0.472-0.283,0.539-0.833,0.15-1.222L8.707,20.121z" style="fill: #111918;"/>
<metadata><work rdf:about=""><format>image/svg+xml</format><type rdf:resource="http://purl.org/dc/dcmitype/StillImage"/><license rdf:resource="http://creativecommons.org/licenses/by/4.0/"/><attributionname>Shannon E Thomas</attributionname><attributionurl>http://www.toicon.com/icons/puchi-puchi_send</attributionurl></work></metadata></svg>
