<svg version="1.1" id="Layer_1" xmlns="http://www.w3.org/2000/svg" xmlns:xlink="http://www.w3.org/1999/xlink" x="0px" y="0px"
	 width="100px" height="100px" viewBox="0 0 100 100" enable-background="new 0 0 100 100" xml:space="preserve">
<g>
	<path d="M50.863,18.539c-17.92,0-32.5,14.579-32.5,32.5s14.58,32.5,32.5,32.5c17.92,0,32.5-14.579,32.5-32.5
		S68.783,18.539,50.863,18.539z M50.863,79.539c-15.715,0-28.5-12.785-28.5-28.5s12.785-28.5,28.5-28.5s28.5,12.785,28.5,28.5
		S66.578,79.539,50.863,79.539z"/>
	<circle cx="51.381" cy="38.08" r="3.345"/>
	<path d="M50.5,46.881c-1.104,0-2,0.896-2,2v17c0,1.104,0.896,2,2,2s2-0.896,2-2v-17C52.5,47.776,51.604,46.881,50.5,46.881z"/>
</g>
</svg>
