<svg version="1.1" id="Layer_1" xmlns="http://www.w3.org/2000/svg" xmlns:xlink="http://www.w3.org/1999/xlink" x="0px" y="0px"
	 width="100px" height="100px" viewBox="0 0 100 100" enable-background="new 0 0 100 100" xml:space="preserve">
<g>
	<path d="M75.088,59.462c4.857-13.696-2.333-28.791-16.028-33.649c-1.044-0.368-2.185,0.176-2.554,1.216
		c-0.369,1.041,0.175,2.185,1.216,2.554c11.617,4.121,17.717,16.926,13.597,28.542c-2.059,5.804-6.291,10.38-11.809,12.877
		l3.438-9.692c0.369-1.042-0.175-2.185-1.216-2.554c-1.044-0.367-2.185,0.176-2.554,1.216l-4.91,13.846
		c-0.369,1.041,0.175,2.185,1.216,2.554L68.6,81.022c0.222,0.078,0.447,0.116,0.669,0.116c0.823,0,1.594-0.513,1.885-1.332
		c0.369-1.041-0.175-2.185-1.216-2.554l-8.174-2.899C67.974,71.355,72.736,66.091,75.088,59.462z"/>
	<path d="M26.676,42.373c-4.857,13.696,2.333,28.791,16.028,33.649c0.222,0.078,0.447,0.116,0.669,0.116
		c0.823,0,1.594-0.513,1.885-1.332c0.369-1.041-0.175-2.185-1.216-2.554c-11.617-4.121-17.717-16.925-13.597-28.542
		c2.059-5.804,6.291-10.381,11.809-12.877l-3.438,9.692c-0.369,1.042,0.175,2.185,1.216,2.554c0.222,0.078,0.447,0.116,0.669,0.116
		c0.823,0,1.594-0.513,1.885-1.332l4.91-13.846c0.369-1.041-0.175-2.185-1.216-2.554l-13.117-4.652
		c-1.045-0.367-2.185,0.176-2.554,1.216c-0.369,1.041,0.175,2.185,1.216,2.554L40,27.481C33.79,30.479,29.027,35.744,26.676,42.373z
		"/>
</g>
</svg>
